# xmcd
#
# Track frame offsets:
# 150
# 13775
# 24772
# 36342
# 50985
# 68197
# 80362
# 91240
# 105145
# 115147
# 124312
# 135490
#
# Disc length: 1937 seconds
#
#
# Revision: 2
# Processed by: cddbd v1.5.1PL0 Copyright (c) Steve Scherf et al.
# Submitted via: FreeRIP 2.942 
#
DISCID=95078f0c
DTITLE=Willie Nelson - Platinum and Gold Collection
DYEAR=2003
DGENRE=Country
TTITLE0=Good Hearted Woman
TTITLE1=Night Life
TTITLE2=Mammas Don't Let Your Babies Grow Up To Be Cowboys
TTITLE3=Sweet Memories
TTITLE4=Me And Paul
TTITLE5=Funny How Time Slips Away
TTITLE6=I Can Get Off On You
TTITLE7=If You Can Touch Her At All
TTITLE8=Hello Walls
TTITLE9=Blackjack County Chain
TTITLE10=The Party's Over
TTITLE11=Bring Me Sunshine
EXTD=BMG Heritage
EXTT0=
EXTT1=
EXTT2=
EXTT3=
EXTT4=
EXTT5=
EXTT6=
EXTT7=
EXTT8=
EXTT9=
EXTT10=
EXTT11=
PLAYORDER=
